<svg width="75" height="77" viewBox="0 0 75 77" fill="none" xmlns="http://www.w3.org/2000/svg">
<path fill-rule="evenodd" clip-rule="evenodd" d="M45.656 70.033H29.656V46.21H45.656V70.033ZM42.718 49.134H32.593V67.11H42.718V49.134Z" fill="#81B3D2"/>
<path fill-rule="evenodd" clip-rule="evenodd" d="M72.771 44.253L74.847 42.185L64.939 32.32V5H51.127V18.567L37.5 5L0.151993 42.185L2.22899 44.253L10.061 36.458V74.076H6.12399V77H69.999V74.076H64.94V36.458L72.771 44.253ZM62.002 74.076H12.999V33.534L37.5 9.149L62.002 33.534V74.076ZM54.064 21.492L62.002 29.394V7.924H54.064V21.492Z" fill="#81B3D2"/>
<path fill-rule="evenodd" clip-rule="evenodd" d="M37.656 39.7929C33.376 39.7929 29.906 36.3409 29.906 32.0799C29.906 27.8209 33.375 24.3669 37.656 24.3669C41.935 24.3669 45.406 27.8209 45.406 32.0799C45.406 36.3409 41.935 39.7929 37.656 39.7929ZM42.625 32.0799C42.625 29.3489 40.4 27.1349 37.656 27.1349C34.911 27.1349 32.686 29.3489 32.686 32.0799C32.686 34.8119 34.91 37.0279 37.656 37.0279C40.4 37.0279 42.625 34.8119 42.625 32.0799ZM17.061 46.2099H20.061V50.1289H17.061V46.2099ZM25.999 46.2099H22.999V50.1289H25.999V46.2099ZM17.061 52.1819H20.061V56.1009H17.061V52.1819ZM25.999 52.1819H22.999V56.1009H25.999V52.1819ZM48.998 46.2099H51.998V50.1289H48.998V46.2099ZM57.936 46.2099H54.936V50.1289H57.936V46.2099ZM48.998 52.1819H51.998V56.1009H48.998V52.1819ZM57.936 52.1819H54.936V56.1009H57.936V52.1819Z" fill="#81B3D2"/>
</svg>
