<svg width="75" height="77" viewBox="0 0 75 77" fill="none" xmlns="http://www.w3.org/2000/svg">
<path fill-rule="evenodd" clip-rule="evenodd" d="M8.97801 38.544H69.855C69.896 37.925 69.924 37.303 69.924 36.674C69.924 36.2812 69.9081 35.8934 69.8922 35.5046V35.5045L69.892 35.501C69.227 19.657 55.186 7 37.952 7C20.719 7 6.67701 19.657 6.01301 35.501C5.99601 35.891 5.98101 36.281 5.98101 36.674C5.98101 37.303 6.00901 37.925 6.05101 38.544H8.97801ZM21.957 49.465L16.634 45.406L11.308 49.465L5.12001 44.751L6.84101 42.294L11.308 45.695L16.635 41.638L21.958 45.695L27.283 41.638L32.611 45.695L37.939 41.638L43.267 45.695L48.596 41.638L53.923 45.695L59.253 41.639L64.589 45.696L69.063 42.293L70.783 44.752L64.589 49.464L59.253 45.405L53.923 49.465L48.596 45.406L43.267 49.465L37.939 45.406L32.611 49.465L27.283 45.406L21.957 49.465ZM5.05102 53.71H70.854C73.128 53.71 74.988 55.65 74.988 58.023V61.527C74.988 63.899 73.127 65.84 70.853 65.84H69.923V66.893C69.923 72.429 65.581 76.958 60.275 76.958H15.629C10.322 76.958 5.98102 72.429 5.98102 66.893V65.84H5.05102C2.77702 65.84 0.916016 63.899 0.916016 61.527V58.023C0.916016 55.65 2.77702 53.71 5.05102 53.71ZM60.276 73.915C63.987 73.915 67.006 70.765 67.006 66.894H67.005V65.841H8.89802V66.894C8.89802 70.765 11.918 73.915 15.629 73.915H60.276ZM72.071 61.527C72.071 62.215 71.513 62.798 70.853 62.798H5.05102C4.39102 62.798 3.83402 62.216 3.83402 61.527V58.023C3.83402 57.335 4.39202 56.752 5.05102 56.752H70.853C71.513 56.752 72.071 57.334 72.071 58.023V61.527ZM66.973 35.501C66.302 21.359 53.543 10.043 37.952 10.043C22.361 10.043 9.60402 21.359 8.93102 35.501H66.973Z" fill="#81B3D2"/>
<path d="M37.952 24.29C39.0262 24.29 39.897 23.3811 39.897 22.26C39.897 21.1388 39.0262 20.23 37.952 20.23C36.8778 20.23 36.007 21.1388 36.007 22.26C36.007 23.3811 36.8778 24.29 37.952 24.29Z" fill="#81B3D2"/>
<path d="M30.172 19.26C31.2468 19.26 32.118 18.3511 32.118 17.23C32.118 16.1088 31.2468 15.2 30.172 15.2C29.0973 15.2 28.226 16.1088 28.226 17.23C28.226 18.3511 29.0973 19.26 30.172 19.26Z" fill="#81B3D2"/>
<path d="M45.732 19.26C46.8068 19.26 47.678 18.3511 47.678 17.23C47.678 16.1088 46.8068 15.2 45.732 15.2C44.6573 15.2 43.786 16.1088 43.786 17.23C43.786 18.3511 44.6573 19.26 45.732 19.26Z" fill="#81B3D2"/>
</svg>
